<?xml version="1.0" encoding="UTF-8" standalone="no"?>
<!-- Created with Inkscape (http://www.inkscape.org/) -->

<svg
   xmlns:dc="http://purl.org/dc/elements/1.1/"
   xmlns:cc="http://creativecommons.org/ns#"
   xmlns:rdf="http://www.w3.org/1999/02/22-rdf-syntax-ns#"
   xmlns:svg="http://www.w3.org/2000/svg"
   xmlns="http://www.w3.org/2000/svg"
   xmlns:sodipodi="http://sodipodi.sourceforge.net/DTD/sodipodi-0.dtd"
   xmlns:inkscape="http://www.inkscape.org/namespaces/inkscape"
   width="1280"
   height="640"
   viewBox="0 0 338.66666 169.33334"
   version="1.1"
   id="svg34"
   inkscape:version="0.92.4 (f8dce91, 2019-08-02)"
   sodipodi:docname="repository-open-graph-inkscape.svg">
  <defs
     id="defs28" />
  <sodipodi:namedview
     id="base"
     pagecolor="#ffffff"
     bordercolor="#666666"
     borderopacity="1.0"
     inkscape:pageopacity="0.0"
     inkscape:pageshadow="2"
     inkscape:zoom="0.7"
     inkscape:cx="642.67184"
     inkscape:cy="412.08452"
     inkscape:document-units="mm"
     inkscape:current-layer="layer1"
     showgrid="true"
     units="px"
     showguides="true"
     inkscape:snap-text-baseline="false"
     inkscape:window-width="1905"
     inkscape:window-height="1095"
     inkscape:window-x="1329"
     inkscape:window-y="67"
     inkscape:window-maximized="0">
    <inkscape:grid
       type="xygrid"
       id="grid36"
       spacingx="10.583333"
       spacingy="10.583333" />
  </sodipodi:namedview>
  <metadata
     id="metadata31">
    <rdf:RDF>
      <cc:Work
         rdf:about="">
        <dc:format>image/svg+xml</dc:format>
        <dc:type
           rdf:resource="http://purl.org/dc/dcmitype/StillImage" />
        <dc:title></dc:title>
        <cc:license
           rdf:resource="http://creativecommons.org/licenses/by/4.0/" />
      </cc:Work>
      <cc:License
         rdf:about="http://creativecommons.org/licenses/by/4.0/">
        <cc:permits
           rdf:resource="http://creativecommons.org/ns#Reproduction" />
        <cc:permits
           rdf:resource="http://creativecommons.org/ns#Distribution" />
        <cc:requires
           rdf:resource="http://creativecommons.org/ns#Notice" />
        <cc:requires
           rdf:resource="http://creativecommons.org/ns#Attribution" />
        <cc:permits
           rdf:resource="http://creativecommons.org/ns#DerivativeWorks" />
      </cc:License>
    </rdf:RDF>
  </metadata>
  <g
     inkscape:label="Layer 1"
     inkscape:groupmode="layer"
     id="layer1"
     transform="translate(0,-127.66665)">
    <text
       xml:space="preserve"
       style="font-style:normal;font-weight:normal;font-size:10.58333302px;line-height:1.25;font-family:sans-serif;letter-spacing:0px;word-spacing:0px;fill:#f76707;fill-opacity:1;stroke:none;stroke-width:0.26458332"
       x="169.46356"
       y="279.91116"
       id="text3762"><tspan
         sodipodi:role="line"
         id="tspan3760"
         x="169.46356"
         y="279.91116"
         style="font-style:normal;font-variant:normal;font-weight:bold;font-stretch:normal;font-size:19.75555611px;font-family:sans-serif;-inkscape-font-specification:'sans-serif, Bold';font-variant-ligatures:normal;font-variant-caps:normal;font-variant-numeric:normal;font-feature-settings:normal;text-align:center;writing-mode:lr-tb;text-anchor:middle;fill:#f76707;fill-opacity:1;stroke-width:0.26458332">SimpleXspatial</tspan></text>
    <g
       inkscape:label="Layer 1"
       id="layer1-6"
       transform="translate(-1.993962,138.17224)">
      <g
         id="g4695"
         transform="matrix(0.10967372,0,0,0.10967372,46.42232,-2.408193)"
         style="fill:#f76707;fill-opacity:0.61340206">
        <g
           id="g4693"
           transform="matrix(0.1,0,0,-0.1,0,511)"
           style="fill:#f76707;fill-opacity:0.61340206">
          <path
             id="path4691"
             d="M 4693.2,1952.2 4537.7,1915 c -155.5,-39.4 -455.4,-170.8 -571.5,-256.2 l -65.7,-46 -394.1,394.1 -391.9,391.9 54.7,166.4 c 194.9,578.1 -129.2,1164.9 -724.8,1320.4 -652.5,170.8 -1307.2,-391.9 -1245.9,-1066.4 61.3,-670 711.6,-1099.2 1337.9,-882.4 l 153.3,52.6 L 3086,1593.1 3482.3,1199 3410,1078.6 C 3309.3,910 3212.9,671.3 3182.3,509.3 L 3154,371.3 H 2626.3 2096.4 L 2035,515.8 C 1857.6,920.9 1400,1168.3 962.1,1096.1 526.4,1023.8 193.5,695.4 114.7,261.8 0.8,-377.6 565.8,-999.5 1203,-933.8 c 378.8,39.4 696.3,258.4 843,582.5 l 50.4,109.5 h 538.6 540.8 l 24.1,-105.1 c 37.2,-166.4 107.3,-335 203.6,-497.1 l 89.8,-148.9 -398.5,-398.5 -398.5,-398.5 -124.8,50.4 c -556.2,225.5 -1193.4,-109.5 -1348.8,-707.3 -87.6,-330.6 4.4,-670 251.8,-935 219,-234.3 464.2,-332.8 786.1,-315.3 317.5,17.5 571.5,151.1 762,400.7 144.5,192.7 190.5,330.6 190.5,602.2 2.2,186.1 -8.8,254 -48.2,361.3 l -48.2,131.4 398.5,398.5 398.5,398.5 61.3,-43.8 c 105.1,-76.6 416,-212.4 571.5,-249.6 l 146.7,-37.2 v -529.9 -527.7 l -148.9,-70.1 c -385.4,-181.7 -624.1,-637.2 -554,-1062 72.3,-444.5 405.1,-777.3 851.8,-854 400.7,-67.9 840.8,148.9 1031.3,508 278.1,519 67.9,1158.3 -459.8,1407.9 l -151.1,70.1 v 525.5 525.5 l 177.4,39.4 c 113.9,26.3 267.1,85.4 418.2,162 l 240.9,122.6 394.1,-394.1 394.1,-394.1 -46,-124.8 c -183.9,-492.7 35,-1037.9 514.6,-1274.4 151.1,-74.5 188.3,-85.4 374.4,-92 462,-21.9 788.3,173 989.7,586.8 76.6,157.7 78.8,173 78.8,405.1 0,199.2 -8.8,262.8 -50.4,365.7 -219,545.2 -827.7,810.2 -1340.1,584.6 l -96.4,-43.8 -402.9,402.9 -405.1,405.1 70.1,100.7 c 89.8,129.2 168.6,304.4 219,490.5 l 39.4,146.7 534.3,6.6 534.3,4.4 50.4,-107.3 c 186.1,-407.3 654.7,-652.5 1101.4,-571.5 551.8,98.5 928.4,635 832.1,1182.4 -120.4,667.8 -825.5,1031.3 -1443,744.5 -194.9,-89.8 -392,-293.4 -475.2,-486.1 l -63.5,-148.9 h -527.7 -525.5 l -39.4,173 C 6773.3,712.8 6641.9,1015 6549.9,1142 l -46,65.7 396.3,396.3 396.3,396.3 137.9,-48.2 c 492.7,-173 1018.2,26.3 1250.3,473 100.7,194.9 133.6,343.8 118.3,549.6 -19.7,302.2 -164.2,564.9 -405.1,744.5 -164.2,124.8 -330.7,181.7 -554,194.9 -313.1,15.3 -560.6,-81 -773,-302.2 C 6792.8,3320.7 6703,2915.6 6841,2549.9 l 46,-124.8 -398.5,-400.7 -400.7,-400.7 -111.7,74.4 c -133.6,89.8 -387.5,190.5 -575.9,229.9 l -137.9,28.5 c -569.1,-4.3 0,0 -569.1,-4.3 z m -2327.5,1351 c 74.4,-26.3 197.1,-140.1 238.7,-221.2 17.5,-32.8 30.7,-116 30.7,-188.3 0,-488.3 -705.1,-582.5 -834.3,-109.5 -87.6,332.9 245.2,639.4 564.9,519 z m 5629.6,-21.9 c 140.1,-70.1 223.3,-208 223.3,-374.4 0,-186.1 -81,-308.7 -256.2,-398.5 -227.7,-113.9 -547.4,63.5 -586.8,324.1 -52.6,348.1 300,602.1 619.7,448.8 z m -2678,-1935.6 c 229.9,-61.3 402.9,-162 582.4,-339.4 256.2,-256.2 376.6,-540.8 376.6,-897.8 0,-354.7 -120.4,-641.6 -378.8,-897.7 -256.2,-256.2 -534.3,-372.2 -893.4,-372.2 -597.8,0 -1094.8,394.1 -1243.7,985.3 -46,183.9 -30.7,503.6 32.8,685.3 142.3,407.3 462,711.6 867.1,827.7 168.7,48.2 486.2,52.5 657,8.8 z M 1240.2,522.3 C 1334.4,498.2 1461.4,393.1 1507.3,307.7 1640.9,49.3 1481,-263.8 1187.6,-318.5 970.9,-357.9 740.9,-187.1 697.2,45 c -32.8,179.5 102.9,405.1 284.7,468.6 107.2,37.2 151,39.4 258.3,8.7 z M 9066,493.9 c 291.2,-135.8 332.8,-554 72.3,-731.3 -173,-116.1 -359.1,-113.9 -519,8.8 -214.6,162 -212.4,512.4 2.2,676.6 144.5,109.4 275.9,122.5 444.5,45.9 z M 2367.9,-2289.2 c 179.6,-76.6 275.9,-234.3 262.8,-429.2 -19.7,-269.3 -249.6,-435.7 -532.1,-383.2 -157.7,30.6 -315.3,234.3 -317.5,413.8 -2.3,300.1 310.9,512.5 586.8,398.6 z m 5673.4,-43.8 c 205.8,-140.1 247.4,-418.2 96.3,-619.7 -157.7,-210.2 -512.4,-210.2 -670,0 -70.1,89.8 -109.5,240.9 -92,330.6 35,159.8 155.4,300 293.4,346 100.7,32.9 284.7,6.6 372.3,-56.9 z M 5199.1,-3386.2 c 81,-41.6 186.1,-166.4 216.8,-260.6 56.9,-170.8 -19.7,-381 -173,-483.9 -326.2,-214.6 -751,87.6 -654.7,468.6 30.7,127 170.8,273.7 293.4,306.6 96.3,26.3 234.3,13.1 317.5,-30.7 z"
             inkscape:connector-curvature="0"
             sodipodi:nodetypes="cccccccccccccccccccccccccccccccccccccccccccccccccccccccccccccccscccccccccccccccccccccccccccccccccccccccscccscccccscscccccccccccccccccccccccccccccccc"
             style="fill:#f76707;fill-opacity:0.61340206" />
        </g>
      </g>
      <path
         id="path3724"
         d="m 99.457177,52.198818 c -13.26219,-19.22624 -15.723898,-21.19944 -15.723898,-28.26537 0,-9.678794 7.846158,-17.524953 17.524951,-17.524953 9.67879,0 17.52495,7.846159 17.52495,17.524953 0,7.06593 -2.46171,9.03913 -15.7239,28.26537 -0.87031,1.25723 -2.73188,1.25714 -3.602103,0 z"
         inkscape:connector-curvature="0"
         style="fill:#f76707;fill-opacity:1;stroke-width:0.09127578" />
      <path
         id="path3713"
         d="m 106.24546,18.491398 c -0.81666,-5.029465 -2.74284,-8.560791 -4.98442,-8.560791 -2.241573,0 -4.167753,3.531326 -4.984403,8.560791 z m -10.391232,5.40682 c 0,1.25033 0.06759,2.44997 0.185858,3.60455 h 10.436284 c 0.11828,-1.15458 0.18586,-2.35422 0.18586,-3.60455 0,-1.25032 -0.0676,-2.44996 -0.18586,-3.60454 H 96.040085 c -0.118273,1.15458 -0.185858,2.35422 -0.185857,3.60454 z m 18.287432,-5.40682 c -1.61077,-3.824194 -4.87176,-6.781046 -8.89872,-7.975054 1.37424,1.903651 2.32043,4.770391 2.81605,7.975054 z M 97.273517,10.516344 c -4.021324,1.194008 -7.287943,4.15086 -8.893092,7.975054 h 6.082669 c 0.489994,-3.204663 1.436187,-6.071403 2.810423,-7.975054 z m 17.470783,9.777334 h -6.46002 c 0.11827,1.18274 0.18586,2.39364 0.18586,3.60454 0,1.2109 -0.0676,2.42181 -0.18586,3.60455 h 6.45439 c 0.30977,-1.15458 0.48436,-2.35422 0.48436,-3.60455 0,-1.25032 -0.17459,-2.44996 -0.47873,-3.60454 z m -20.692348,3.60454 c 0,-1.2109 0.06758,-2.4218 0.185862,-3.60454 H 87.77779 c -0.304133,1.15458 -0.48436,2.35422 -0.48436,3.60454 0,1.25033 0.180227,2.44997 0.48436,3.60455 h 6.454389 c -0.112643,-1.18274 -0.180227,-2.39365 -0.180227,-3.60455 z m 2.224685,5.40682 c 0.81665,5.02947 2.74283,8.5608 4.984403,8.5608 2.24158,0 4.16776,-3.53133 4.98442,-8.5608 z m 8.971943,7.97506 c 4.02132,-1.19401 7.28794,-4.15086 8.89872,-7.97506 h -6.08267 c -0.49563,3.20467 -1.44182,6.07141 -2.81605,7.97506 z m -16.868155,-7.97506 c 1.610782,3.8242 4.871769,6.78105 8.898722,7.97506 -1.374232,-1.90365 -2.320424,-4.77039 -2.816052,-7.97506 z"
         inkscape:connector-curvature="0"
         style="fill:#feffff;fill-opacity:1;stroke:#000000;stroke-width:0.05632102;stroke-opacity:1" />
    </g>
    <text
       xml:space="preserve"
       style="font-style:normal;font-variant:normal;font-weight:normal;font-stretch:normal;font-size:11.28888893px;line-height:1.25;font-family:sans-serif;-inkscape-font-specification:'sans-serif, Normal';font-variant-ligatures:normal;font-variant-caps:normal;font-variant-numeric:normal;font-feature-settings:normal;text-align:center;letter-spacing:0px;word-spacing:0px;writing-mode:lr-tb;text-anchor:middle;fill:#f76707;fill-opacity:1;stroke:none;stroke-width:0.26458332"
       x="235.4019"
       y="155.24849"
       id="text4571"><tspan
         sodipodi:role="line"
         id="tspan4688"
         x="235.4019"
         y="155.24849">Distributed Spatial</tspan><tspan
         sodipodi:role="line"
         id="tspan4690"
         x="235.4019"
         y="169.3596">Data and Algorithms</tspan><tspan
         sodipodi:role="line"
         id="tspan4692"
         x="235.4019"
         y="183.47072"></tspan><tspan
         sodipodi:role="line"
         id="tspan4694"
         x="235.4019"
         y="197.58182">Responsive</tspan><tspan
         sodipodi:role="line"
         id="tspan4696"
         x="235.4019"
         y="211.69293">Resilient</tspan><tspan
         sodipodi:role="line"
         id="tspan4698"
         x="235.4019"
         y="225.80405">Elastic</tspan><tspan
         sodipodi:role="line"
         id="tspan4700"
         x="235.4019"
         y="239.91516">Message Driven</tspan></text>
    <path
       style="fill:#f76707;fill-opacity:1;stroke:#f76707;stroke-width:1;stroke-linecap:butt;stroke-linejoin:miter;stroke-miterlimit:4;stroke-dasharray:none;stroke-opacity:1"
       d="M 172.1775,180.58332 H 299.17751"
       id="path4702"
       inkscape:connector-curvature="0" />
  </g>
</svg>
